<?xml version="1.0"?>
<svg xmlns="http://www.w3.org/2000/svg" xmlns:xlink="http://www.w3.org/1999/xlink" xmlns:svgjs="http://svgjs.com/svgjs" version="1.1" width="512" height="512" x="0" y="0" viewBox="0 0 24 24" style="enable-background:new 0 0 512 512" xml:space="preserve"><g><path xmlns="http://www.w3.org/2000/svg" d="m13.5 2.115v-.615a1.5 1.5 0 0 0 -3 0v.615a10.968 10.968 0 0 0 -7.214 17.572 3.526 3.526 0 0 0 -1.286 2.813 1.5 1.5 0 0 0 3 0 .641.641 0 0 1 .455-.68 10.917 10.917 0 0 0 13.087 0 .641.641 0 0 1 .458.68 1.5 1.5 0 0 0 3 0 3.526 3.526 0 0 0 -1.286-2.813 10.968 10.968 0 0 0 -7.214-17.572zm-9.5 10.885a8 8 0 1 1 8 8 8.009 8.009 0 0 1 -8-8z" fill="#1776b6" data-original="#000000"/><path xmlns="http://www.w3.org/2000/svg" d="m19.5 0a1.5 1.5 0 0 0 0 3 1.361 1.361 0 0 1 1.459 1.5 1.5 1.5 0 0 0 3 0 4.333 4.333 0 0 0 -4.459-4.5z" fill="#1392e8" data-original="#000000"/><path xmlns="http://www.w3.org/2000/svg" d="m3.041 4.5a1.361 1.361 0 0 1 1.459-1.5 1.5 1.5 0 0 0 0-3 4.333 4.333 0 0 0 -4.459 4.5 1.5 1.5 0 0 0 3 0z" fill="#1392e8" data-original="#000000"/><path xmlns="http://www.w3.org/2000/svg" d="m13.53 12.379v-3.879a1.5 1.5 0 0 0 -1.5-1.5 1.5 1.5 0 0 0 -1.5 1.5v4.293a2 2 0 0 0 .586 1.414l1.793 1.793a1.5 1.5 0 0 0 2.121-2.121z" fill="#1392e8" data-original="#000000"/></g></svg>
